<svg id="visual" viewBox="0 0 960 540" width="960" height="540" xmlns="http://www.w3.org/2000/svg" xmlns:xlink="http://www.w3.org/1999/xlink" version="1.1"><rect x="0" y="0" width="960" height="540" fill="#001220"></rect><defs><linearGradient id="grad1_0" x1="43.8%" y1="100%" x2="100%" y2="0%"><stop offset="14.444444444444446%" stop-color="#001220" stop-opacity="1"></stop><stop offset="85.55555555555554%" stop-color="#001220" stop-opacity="1"></stop></linearGradient></defs><defs><linearGradient id="grad2_0" x1="0%" y1="100%" x2="56.3%" y2="0%"><stop offset="14.444444444444446%" stop-color="#001220" stop-opacity="1"></stop><stop offset="85.55555555555554%" stop-color="#001220" stop-opacity="1"></stop></linearGradient></defs><g transform="translate(960, 540)"><path d="M-270 0C-266.9 -38.1 -263.8 -76.2 -243.9 -101C-224 -125.9 -187.2 -137.5 -163.3 -163.3C-139.4 -189.2 -128.4 -229.3 -103.3 -249.4C-78.2 -269.6 -39.1 -269.8 0 -270L0 0Z" fill="#FBAE3C"></path></g><g transform="translate(0, 0)"><path d="M270 0C243.1 25.7 216.1 51.4 206.9 85.7C197.8 120.1 206.3 163.1 190.9 190.9C175.5 218.8 136.1 231.4 100.3 242.1C64.4 252.7 32.2 261.4 0 270L0 0Z" fill="#FBAE3C"></path></g></svg>